<?xml version="1.0" standalone="no"?>
<!DOCTYPE svg PUBLIC "-//W3C//DTD SVG 20010904//EN"
 "http://www.w3.org/TR/2001/REC-SVG-20010904/DTD/svg10.dtd">
<svg version="1.0" xmlns="http://www.w3.org/2000/svg"
 width="256.000000pt" height="256.000000pt" viewBox="0 0 256.000000 256.000000"
 preserveAspectRatio="xMidYMid meet">
<metadata>
Created by potrace 1.11, written by Peter Selinger 2001-2013
</metadata>
<g transform="translate(0.000000,256.000000) scale(0.100000,-0.100000)"
fill="#000000" stroke="none">
<path d="M1109 2549 c-544 -80 -967 -476 -1084 -1014 -31 -141 -26 -415 9
-550 2 -5 6 -23 10 -40 4 -16 10 -37 13 -45 4 -8 7 -17 8 -20 6 -25 51 -132
76 -183 180 -356 546 -621 939 -680 88 -13 326 -16 390 -4 81 15 99 19 135 29
22 6 42 12 45 13 89 19 289 120 389 196 71 53 169 144 217 201 41 49 104 137
104 147 0 5 4 11 9 13 14 5 86 156 119 250 46 128 64 236 67 393 3 148 -3 211
-36 340 -88 351 -328 654 -649 820 -94 48 -278 113 -345 121 -22 3 -47 8 -55
11 -26 9 -302 11 -361 2z"/>
</g>
</svg>
